<?xml version="1.0" standalone="no"?>
<!DOCTYPE svg PUBLIC "-//W3C//DTD SVG 20010904//EN"
 "http://www.w3.org/TR/2001/REC-SVG-20010904/DTD/svg10.dtd">
<svg version="1.0" xmlns="http://www.w3.org/2000/svg"
 width="372.000000pt" height="372.000000pt" viewBox="0 0 372.000000 372.000000"
 preserveAspectRatio="xMidYMid meet">
<metadata>
Created by potrace 1.14, written by Peter Selinger 2001-2017
</metadata>
<g transform="translate(0.000000,372.000000) scale(0.100000,-0.100000)"
fill="#000000" stroke="none">
<path d="M747 3661 c-15 -31 -48 -81 -73 -111 -62 -73 -108 -144 -130 -205
-15 -43 -18 -79 -17 -252 2 -190 1 -203 -16 -203 -17 0 -19 -10 -21 -87 -1
-49 -4 -131 -7 -183 -9 -175 -2 -773 12 -1045 6 -129 16 -294 20 -335 11 -127
15 -171 20 -240 4 -41 8 -93 11 -115 3 -22 7 -62 9 -90 2 -27 6 -63 9 -80 2
-16 7 -57 11 -90 20 -188 63 -418 98 -523 34 -102 69 -126 108 -73 21 28 25
29 105 30 83 1 187 7 274 17 25 3 68 7 95 10 28 3 57 7 65 9 8 2 38 7 65 11
28 3 59 8 70 11 11 2 31 6 45 9 14 3 45 10 70 15 25 6 54 13 66 15 25 5 223
62 244 71 8 3 20 7 25 8 16 4 143 53 178 69 230 104 366 179 502 280 297 218
508 492 605 785 50 150 64 246 64 436 0 107 -5 203 -12 236 -7 30 -15 68 -18
82 -10 56 -58 194 -94 272 -165 357 -490 662 -935 880 -260 127 -582 240 -799
279 -15 3 -34 7 -44 10 -9 3 -28 7 -42 10 -14 2 -52 9 -85 15 -33 6 -78 13
-100 16 -22 4 -50 8 -63 10 -13 2 -53 7 -90 11 -37 3 -73 7 -79 8 -7 1 -23 11
-35 22 -13 12 -37 30 -53 42 l-31 20 -27 -57z m503 -465 c350 -73 617 -171
925 -340 43 -24 163 -105 218 -148 264 -207 434 -472 474 -738 12 -77 7 -302
-7 -365 -7 -33 -14 -64 -16 -70 -1 -5 -13 -41 -28 -78 -133 -350 -464 -639
-953 -831 -78 -30 -302 -99 -368 -112 -11 -2 -58 -11 -105 -20 -47 -9 -92 -18
-101 -19 -9 -2 -40 -6 -70 -10 -30 -3 -65 -8 -79 -10 -14 -2 -71 -7 -127 -10
-117 -7 -110 -15 -89 90 8 39 18 93 21 120 3 28 7 61 10 75 12 77 37 267 50
390 2 19 7 69 10 110 4 41 8 86 10 100 2 14 7 68 10 120 4 52 8 111 10 130 14
148 20 384 19 730 0 498 -3 570 -19 576 -9 4 -12 49 -11 175 l1 171 45 -5 c25
-3 101 -17 170 -31z"/>
</g>
</svg>
